<svg xmlns="http://www.w3.org/2000/svg" xmlns:xlink="http://www.w3.org/1999/xlink" width="512" zoomAndPan="magnify" viewBox="0 0 384 95.999999" height="128" preserveAspectRatio="xMidYMid meet" version="1.0"><defs><g/><clipPath id="4440007ef9"><rect x="0" width="168" y="0" height="93"/></clipPath><clipPath id="c71e039231"><rect x="0" width="128" y="0" height="96"/></clipPath></defs><g transform="matrix(1, 0, 0, 1, 42, 3)"><g clip-path="url(#4440007ef9)"><g fill="#080951" fill-opacity="1"><g transform="translate(0.618607, 72.474355)"><g><path d="M 2.96875 -19.09375 C 2.96875 -22.957031 3.75 -26.351562 5.3125 -29.28125 C 6.882812 -32.207031 9.039062 -34.476562 11.78125 -36.09375 C 14.53125 -37.707031 17.585938 -38.515625 20.953125 -38.515625 C 24.273438 -38.515625 27.15625 -37.800781 29.59375 -36.375 C 32.039062 -34.945312 33.863281 -33.148438 35.0625 -30.984375 L 35.0625 -37.890625 L 41.421875 -37.890625 L 41.421875 0 L 35.0625 0 L 35.0625 -7.046875 C 33.8125 -4.835938 31.953125 -3.003906 29.484375 -1.546875 C 27.023438 -0.0976562 24.160156 0.625 20.890625 0.625 C 17.523438 0.625 14.476562 -0.203125 11.75 -1.859375 C 9.03125 -3.523438 6.882812 -5.851562 5.3125 -8.84375 C 3.75 -11.84375 2.96875 -15.257812 2.96875 -19.09375 Z M 35.0625 -19.015625 C 35.0625 -21.878906 34.484375 -24.367188 33.328125 -26.484375 C 32.179688 -28.609375 30.625 -30.234375 28.65625 -31.359375 C 26.695312 -32.492188 24.546875 -33.0625 22.203125 -33.0625 C 19.847656 -33.0625 17.703125 -32.503906 15.765625 -31.390625 C 13.828125 -30.285156 12.28125 -28.671875 11.125 -26.546875 C 9.976562 -24.429688 9.40625 -21.945312 9.40625 -19.09375 C 9.40625 -16.1875 9.976562 -13.660156 11.125 -11.515625 C 12.28125 -9.367188 13.828125 -7.726562 15.765625 -6.59375 C 17.703125 -5.46875 19.847656 -4.90625 22.203125 -4.90625 C 24.546875 -4.90625 26.695312 -5.46875 28.65625 -6.59375 C 30.625 -7.726562 32.179688 -9.367188 33.328125 -11.515625 C 34.484375 -13.660156 35.0625 -16.160156 35.0625 -19.015625 Z M 35.0625 -19.015625 "/></g></g></g><g fill="#080951" fill-opacity="1"><g transform="translate(47.371612, 72.474355)"><g><path d="M 11.625 -51.171875 L 11.625 0 L 5.328125 0 L 5.328125 -51.171875 Z M 11.625 -51.171875 "/></g></g></g><g fill="#080951" fill-opacity="1"><g transform="translate(64.38529, 72.474355)"><g><path d="M 2.96875 -19.09375 C 2.96875 -22.957031 3.75 -26.351562 5.3125 -29.28125 C 6.882812 -32.207031 9.039062 -34.476562 11.78125 -36.09375 C 14.53125 -37.707031 17.585938 -38.515625 20.953125 -38.515625 C 24.273438 -38.515625 27.15625 -37.800781 29.59375 -36.375 C 32.039062 -34.945312 33.863281 -33.148438 35.0625 -30.984375 L 35.0625 -37.890625 L 41.421875 -37.890625 L 41.421875 0 L 35.0625 0 L 35.0625 -7.046875 C 33.8125 -4.835938 31.953125 -3.003906 29.484375 -1.546875 C 27.023438 -0.0976562 24.160156 0.625 20.890625 0.625 C 17.523438 0.625 14.476562 -0.203125 11.75 -1.859375 C 9.03125 -3.523438 6.882812 -5.851562 5.3125 -8.84375 C 3.75 -11.84375 2.96875 -15.257812 2.96875 -19.09375 Z M 35.0625 -19.015625 C 35.0625 -21.878906 34.484375 -24.367188 33.328125 -26.484375 C 32.179688 -28.609375 30.625 -30.234375 28.65625 -31.359375 C 26.695312 -32.492188 24.546875 -33.0625 22.203125 -33.0625 C 19.847656 -33.0625 17.703125 -32.503906 15.765625 -31.390625 C 13.828125 -30.285156 12.28125 -28.671875 11.125 -26.546875 C 9.976562 -24.429688 9.40625 -21.945312 9.40625 -19.09375 C 9.40625 -16.1875 9.976562 -13.660156 11.125 -11.515625 C 12.28125 -9.367188 13.828125 -7.726562 15.765625 -6.59375 C 17.703125 -5.46875 19.847656 -4.90625 22.203125 -4.90625 C 24.546875 -4.90625 26.695312 -5.46875 28.65625 -6.59375 C 30.625 -7.726562 32.179688 -9.367188 33.328125 -11.515625 C 34.484375 -13.660156 35.0625 -16.160156 35.0625 -19.015625 Z M 35.0625 -19.015625 "/></g></g></g><g fill="#080951" fill-opacity="1"><g transform="translate(111.138295, 72.474355)"><g><path d="M 8.578125 -44.046875 C 7.378906 -44.046875 6.363281 -44.460938 5.53125 -45.296875 C 4.695312 -46.128906 4.28125 -47.144531 4.28125 -48.34375 C 4.28125 -49.539062 4.695312 -50.550781 5.53125 -51.375 C 6.363281 -52.207031 7.378906 -52.625 8.578125 -52.625 C 9.722656 -52.625 10.695312 -52.207031 11.5 -51.375 C 12.3125 -50.550781 12.71875 -49.539062 12.71875 -48.34375 C 12.71875 -47.144531 12.3125 -46.128906 11.5 -45.296875 C 10.695312 -44.460938 9.722656 -44.046875 8.578125 -44.046875 Z M 11.625 -37.890625 L 11.625 0 L 5.328125 0 L 5.328125 -37.890625 Z M 11.625 -37.890625 "/></g></g></g><g fill="#080951" fill-opacity="1"><g transform="translate(128.151974, 72.474355)"><g><path d="M 37.96875 -37.890625 L 15.140625 17.84375 L 8.640625 17.84375 L 16.109375 -0.421875 L 0.828125 -37.890625 L 7.8125 -37.890625 L 19.703125 -7.1875 L 31.46875 -37.890625 Z M 37.96875 -37.890625 "/></g></g></g></g></g><g transform="matrix(1, 0, 0, 1, 215, -0.000000000000008101)"><g clip-path="url(#c71e039231)"><g fill="#64c4f0" fill-opacity="1"><g transform="translate(0.342437, 77.716005)"><g><path d="M 3.75 -33.609375 C 3.75 -38.609375 4.453125 -43.234375 5.859375 -47.484375 C 7.265625 -51.742188 9.34375 -55.425781 12.09375 -58.53125 C 14.851562 -61.644531 18.25 -64.066406 22.28125 -65.796875 C 26.3125 -67.523438 30.953125 -68.390625 36.203125 -68.390625 C 41.453125 -68.390625 46.09375 -67.523438 50.125 -65.796875 C 54.164062 -64.066406 57.546875 -61.644531 60.265625 -58.53125 C 62.984375 -55.425781 65.046875 -51.742188 66.453125 -47.484375 C 67.867188 -43.234375 68.578125 -38.609375 68.578125 -33.609375 C 68.578125 -28.617188 67.867188 -23.992188 66.453125 -19.734375 C 65.046875 -15.472656 62.984375 -11.789062 60.265625 -8.6875 C 57.546875 -5.582031 54.164062 -3.164062 50.125 -1.4375 C 46.09375 0.289062 41.453125 1.15625 36.203125 1.15625 C 30.953125 1.15625 26.3125 0.289062 22.28125 -1.4375 C 18.25 -3.164062 14.851562 -5.582031 12.09375 -8.6875 C 9.34375 -11.789062 7.265625 -15.472656 5.859375 -19.734375 C 4.453125 -23.992188 3.75 -28.617188 3.75 -33.609375 Z M 20.078125 -33.609375 C 20.078125 -29.515625 20.394531 -25.722656 21.03125 -22.234375 C 21.675781 -18.742188 22.6875 -15.734375 24.0625 -13.203125 C 25.4375 -10.671875 27.195312 -8.6875 29.34375 -7.25 C 31.488281 -5.8125 34.066406 -5.09375 37.078125 -5.09375 C 39.828125 -5.09375 42.160156 -5.8125 44.078125 -7.25 C 46.003906 -8.6875 47.570312 -10.671875 48.78125 -13.203125 C 50 -15.734375 50.878906 -18.742188 51.421875 -22.234375 C 51.972656 -25.722656 52.25 -29.515625 52.25 -33.609375 C 52.25 -37.710938 51.941406 -41.507812 51.328125 -45 C 50.722656 -48.488281 49.765625 -51.492188 48.453125 -54.015625 C 47.140625 -56.546875 45.410156 -58.53125 43.265625 -59.96875 C 41.117188 -61.414062 38.507812 -62.140625 35.4375 -62.140625 C 32.488281 -62.140625 30.019531 -61.414062 28.03125 -59.96875 C 26.050781 -58.53125 24.46875 -56.546875 23.28125 -54.015625 C 22.101562 -51.492188 21.273438 -48.488281 20.796875 -45 C 20.316406 -41.507812 20.078125 -37.710938 20.078125 -33.609375 Z M 20.078125 -33.609375 "/></g></g></g><g fill="#64c4f0" fill-opacity="1"><g transform="translate(72.758307, 77.716005)"><g><path d="M 15.078125 -7.96875 C 15.785156 -7.269531 16.78125 -6.613281 18.0625 -6 C 19.34375 -5.394531 21.035156 -5.09375 23.140625 -5.09375 C 26.671875 -5.09375 29.601562 -6.003906 31.9375 -7.828125 C 34.269531 -9.648438 35.4375 -12.195312 35.4375 -15.46875 C 35.4375 -17.832031 34.679688 -19.8125 33.171875 -21.40625 C 31.671875 -23.007812 29.769531 -24.484375 27.46875 -25.828125 C 25.164062 -27.179688 22.703125 -28.515625 20.078125 -29.828125 C 17.453125 -31.140625 14.984375 -32.691406 12.671875 -34.484375 C 10.367188 -36.273438 8.460938 -38.398438 6.953125 -40.859375 C 5.453125 -43.328125 4.703125 -46.390625 4.703125 -50.046875 C 4.703125 -53.179688 5.273438 -55.898438 6.421875 -58.203125 C 7.578125 -60.503906 9.164062 -62.40625 11.1875 -63.90625 C 13.207031 -65.414062 15.59375 -66.539062 18.34375 -67.28125 C 21.09375 -68.019531 24.070312 -68.390625 27.28125 -68.390625 C 31.1875 -68.390625 34.816406 -68.113281 38.171875 -67.5625 C 41.535156 -67.019531 44.5625 -66.175781 47.25 -65.03125 C 47.1875 -63.75 47.070312 -62.273438 46.90625 -60.609375 C 46.75 -58.941406 46.539062 -57.289062 46.28125 -55.65625 C 46.03125 -54.019531 45.757812 -52.484375 45.46875 -51.046875 C 45.1875 -49.609375 44.914062 -48.410156 44.65625 -47.453125 L 40.71875 -47.453125 L 36.3125 -60.609375 C 35.539062 -60.992188 34.398438 -61.34375 32.890625 -61.65625 C 31.390625 -61.976562 29.835938 -62.140625 28.234375 -62.140625 C 25.546875 -62.140625 23.273438 -61.4375 21.421875 -60.03125 C 19.566406 -58.625 18.640625 -56.570312 18.640625 -53.875 C 18.640625 -51.445312 19.40625 -49.382812 20.9375 -47.6875 C 22.476562 -45.988281 24.398438 -44.4375 26.703125 -43.03125 C 29.003906 -41.625 31.515625 -40.226562 34.234375 -38.84375 C 36.960938 -37.46875 39.476562 -35.882812 41.78125 -34.09375 C 44.082031 -32.300781 46 -30.203125 47.53125 -27.796875 C 49.070312 -25.398438 49.84375 -22.441406 49.84375 -18.921875 C 49.84375 -12.515625 47.679688 -7.566406 43.359375 -4.078125 C 39.035156 -0.585938 32.679688 1.15625 24.296875 1.15625 C 22.242188 1.15625 20.175781 1.023438 18.09375 0.765625 C 16.019531 0.515625 14.050781 0.164062 12.1875 -0.28125 C 10.332031 -0.726562 8.6875 -1.207031 7.25 -1.71875 C 5.8125 -2.238281 4.738281 -2.785156 4.03125 -3.359375 C 4.09375 -4.835938 4.25 -6.421875 4.5 -8.109375 C 4.757812 -9.804688 5.035156 -11.503906 5.328125 -13.203125 C 5.617188 -14.898438 5.921875 -16.515625 6.234375 -18.046875 C 6.554688 -19.585938 6.878906 -20.9375 7.203125 -22.09375 L 11.140625 -22.09375 Z M 15.078125 -7.96875 "/></g></g></g></g></g></svg>