<svg xmlns="http://www.w3.org/2000/svg" xmlns:xlink="http://www.w3.org/1999/xlink" width="512" zoomAndPan="magnify" viewBox="0 0 384 95.999999" height="128" preserveAspectRatio="xMidYMid meet" version="1.0"><defs><g/><clipPath id="a53be014a3"><rect x="0" width="116" y="0" height="96"/></clipPath></defs><rect x="-38.4" width="460.8" fill="#ffffff" y="-9.6" height="115.199999" fill-opacity="1"/><rect x="-38.4" width="460.8" fill="#ffffff" y="-9.6" height="115.199999" fill-opacity="1"/><g fill="#002946" fill-opacity="1"><g transform="translate(34.225417, 71.431543)"><g><path d="M 3.46875 -22.25 C 3.46875 -26.757812 4.378906 -30.71875 6.203125 -34.125 C 8.035156 -37.539062 10.550781 -40.191406 13.75 -42.078125 C 16.945312 -43.960938 20.503906 -44.90625 24.421875 -44.90625 C 28.296875 -44.90625 31.65625 -44.070312 34.5 -42.40625 C 37.34375 -40.738281 39.46875 -38.640625 40.875 -36.109375 L 40.875 -44.171875 L 48.28125 -44.171875 L 48.28125 0 L 40.875 0 L 40.875 -8.21875 C 39.414062 -5.644531 37.25 -3.507812 34.375 -1.8125 C 31.5 -0.125 28.15625 0.71875 24.34375 0.71875 C 20.414062 0.71875 16.867188 -0.242188 13.703125 -2.171875 C 10.535156 -4.109375 8.035156 -6.820312 6.203125 -10.3125 C 4.378906 -13.8125 3.46875 -17.789062 3.46875 -22.25 Z M 40.875 -22.171875 C 40.875 -25.503906 40.203125 -28.40625 38.859375 -30.875 C 37.515625 -33.34375 35.695312 -35.234375 33.40625 -36.546875 C 31.125 -37.867188 28.613281 -38.53125 25.875 -38.53125 C 23.132812 -38.53125 20.632812 -37.882812 18.375 -36.59375 C 16.125 -35.300781 14.328125 -33.421875 12.984375 -30.953125 C 11.640625 -28.484375 10.96875 -25.582031 10.96875 -22.25 C 10.96875 -18.863281 11.640625 -15.921875 12.984375 -13.421875 C 14.328125 -10.921875 16.125 -9.007812 18.375 -7.6875 C 20.632812 -6.375 23.132812 -5.71875 25.875 -5.71875 C 28.613281 -5.71875 31.125 -6.375 33.40625 -7.6875 C 35.695312 -9.007812 37.515625 -10.921875 38.859375 -13.421875 C 40.203125 -15.921875 40.875 -18.835938 40.875 -22.171875 Z M 40.875 -22.171875 "/></g></g></g><g fill="#002946" fill-opacity="1"><g transform="translate(88.71212, 71.431543)"><g><path d="M 13.546875 -59.65625 L 13.546875 0 L 6.203125 0 L 6.203125 -59.65625 Z M 13.546875 -59.65625 "/></g></g></g><g fill="#002946" fill-opacity="1"><g transform="translate(108.540118, 71.431543)"><g><path d="M 3.46875 -22.25 C 3.46875 -26.757812 4.378906 -30.71875 6.203125 -34.125 C 8.035156 -37.539062 10.550781 -40.191406 13.75 -42.078125 C 16.945312 -43.960938 20.503906 -44.90625 24.421875 -44.90625 C 28.296875 -44.90625 31.65625 -44.070312 34.5 -42.40625 C 37.34375 -40.738281 39.46875 -38.640625 40.875 -36.109375 L 40.875 -44.171875 L 48.28125 -44.171875 L 48.28125 0 L 40.875 0 L 40.875 -8.21875 C 39.414062 -5.644531 37.25 -3.507812 34.375 -1.8125 C 31.5 -0.125 28.15625 0.71875 24.34375 0.71875 C 20.414062 0.71875 16.867188 -0.242188 13.703125 -2.171875 C 10.535156 -4.109375 8.035156 -6.820312 6.203125 -10.3125 C 4.378906 -13.8125 3.46875 -17.789062 3.46875 -22.25 Z M 40.875 -22.171875 C 40.875 -25.503906 40.203125 -28.40625 38.859375 -30.875 C 37.515625 -33.34375 35.695312 -35.234375 33.40625 -36.546875 C 31.125 -37.867188 28.613281 -38.53125 25.875 -38.53125 C 23.132812 -38.53125 20.632812 -37.882812 18.375 -36.59375 C 16.125 -35.300781 14.328125 -33.421875 12.984375 -30.953125 C 11.640625 -28.484375 10.96875 -25.582031 10.96875 -22.25 C 10.96875 -18.863281 11.640625 -15.921875 12.984375 -13.421875 C 14.328125 -10.921875 16.125 -9.007812 18.375 -7.6875 C 20.632812 -6.375 23.132812 -5.71875 25.875 -5.71875 C 28.613281 -5.71875 31.125 -6.375 33.40625 -7.6875 C 35.695312 -9.007812 37.515625 -10.921875 38.859375 -13.421875 C 40.203125 -15.921875 40.875 -18.835938 40.875 -22.171875 Z M 40.875 -22.171875 "/></g></g></g><g fill="#002946" fill-opacity="1"><g transform="translate(163.026821, 71.431543)"><g><path d="M 10 -51.34375 C 8.601562 -51.34375 7.421875 -51.828125 6.453125 -52.796875 C 5.484375 -53.765625 5 -54.945312 5 -56.34375 C 5 -57.738281 5.484375 -58.921875 6.453125 -59.890625 C 7.421875 -60.859375 8.601562 -61.34375 10 -61.34375 C 11.34375 -61.34375 12.484375 -60.859375 13.421875 -59.890625 C 14.359375 -58.921875 14.828125 -57.738281 14.828125 -56.34375 C 14.828125 -54.945312 14.359375 -53.765625 13.421875 -52.796875 C 12.484375 -51.828125 11.34375 -51.34375 10 -51.34375 Z M 13.546875 -44.171875 L 13.546875 0 L 6.203125 0 L 6.203125 -44.171875 Z M 13.546875 -44.171875 "/></g></g></g><g fill="#002946" fill-opacity="1"><g transform="translate(182.854819, 71.431543)"><g><path d="M 44.25 -44.171875 L 17.65625 20.796875 L 10.078125 20.796875 L 18.78125 -0.484375 L 0.96875 -44.171875 L 9.109375 -44.171875 L 22.96875 -8.390625 L 36.671875 -44.171875 Z M 44.25 -44.171875 "/></g></g></g><g transform="matrix(1, 0, 0, 1, 236, -0.000000000000008101)"><g clip-path="url(#a53be014a3)"><g fill="#64c4f0" fill-opacity="1"><g transform="translate(0.94006, 72.75617)"><g><path d="M 3.375 -30.328125 C 3.375 -34.828125 4.007812 -39 5.28125 -42.84375 C 6.550781 -46.6875 8.425781 -50.007812 10.90625 -52.8125 C 13.394531 -55.613281 16.457031 -57.789062 20.09375 -59.34375 C 23.738281 -60.90625 27.925781 -61.6875 32.65625 -61.6875 C 37.394531 -61.6875 41.582031 -60.90625 45.21875 -59.34375 C 48.863281 -57.789062 51.910156 -55.613281 54.359375 -52.8125 C 56.816406 -50.007812 58.679688 -46.6875 59.953125 -42.84375 C 61.222656 -39 61.859375 -34.828125 61.859375 -30.328125 C 61.859375 -25.816406 61.222656 -21.640625 59.953125 -17.796875 C 58.679688 -13.960938 56.816406 -10.644531 54.359375 -7.84375 C 51.910156 -5.039062 48.863281 -2.859375 45.21875 -1.296875 C 41.582031 0.265625 37.394531 1.046875 32.65625 1.046875 C 27.925781 1.046875 23.738281 0.265625 20.09375 -1.296875 C 16.457031 -2.859375 13.394531 -5.039062 10.90625 -7.84375 C 8.425781 -10.644531 6.550781 -13.960938 5.28125 -17.796875 C 4.007812 -21.640625 3.375 -25.816406 3.375 -30.328125 Z M 18.109375 -30.328125 C 18.109375 -26.628906 18.394531 -23.203125 18.96875 -20.046875 C 19.550781 -16.898438 20.460938 -14.1875 21.703125 -11.90625 C 22.941406 -9.625 24.53125 -7.832031 26.46875 -6.53125 C 28.40625 -5.238281 30.726562 -4.59375 33.4375 -4.59375 C 35.925781 -4.59375 38.035156 -5.238281 39.765625 -6.53125 C 41.503906 -7.832031 42.921875 -9.625 44.015625 -11.90625 C 45.109375 -14.1875 45.898438 -16.898438 46.390625 -20.046875 C 46.878906 -23.203125 47.125 -26.628906 47.125 -30.328125 C 47.125 -34.023438 46.847656 -37.445312 46.296875 -40.59375 C 45.753906 -43.738281 44.890625 -46.453125 43.703125 -48.734375 C 42.523438 -51.015625 40.96875 -52.804688 39.03125 -54.109375 C 37.09375 -55.410156 34.738281 -56.0625 31.96875 -56.0625 C 29.3125 -56.0625 27.085938 -55.410156 25.296875 -54.109375 C 23.503906 -52.804688 22.070312 -51.015625 21 -48.734375 C 19.9375 -46.453125 19.1875 -43.738281 18.75 -40.59375 C 18.320312 -37.445312 18.109375 -34.023438 18.109375 -30.328125 Z M 18.109375 -30.328125 "/></g></g></g><g fill="#64c4f0" fill-opacity="1"><g transform="translate(66.261369, 72.75617)"><g><path d="M 13.609375 -7.1875 C 14.242188 -6.550781 15.132812 -5.957031 16.28125 -5.40625 C 17.4375 -4.863281 18.96875 -4.59375 20.875 -4.59375 C 24.050781 -4.59375 26.691406 -5.414062 28.796875 -7.0625 C 30.910156 -8.707031 31.96875 -11.003906 31.96875 -13.953125 C 31.96875 -16.085938 31.285156 -17.875 29.921875 -19.3125 C 28.566406 -20.757812 26.847656 -22.085938 24.765625 -23.296875 C 22.691406 -24.515625 20.472656 -25.710938 18.109375 -26.890625 C 15.742188 -28.078125 13.519531 -29.476562 11.4375 -31.09375 C 9.351562 -32.71875 7.632812 -34.640625 6.28125 -36.859375 C 4.925781 -39.085938 4.25 -41.847656 4.25 -45.140625 C 4.25 -47.972656 4.765625 -50.425781 5.796875 -52.5 C 6.835938 -54.582031 8.269531 -56.300781 10.09375 -57.65625 C 11.914062 -59.019531 14.066406 -60.03125 16.546875 -60.6875 C 19.035156 -61.351562 21.722656 -61.6875 24.609375 -61.6875 C 28.128906 -61.6875 31.40625 -61.441406 34.4375 -60.953125 C 37.46875 -60.460938 40.195312 -59.695312 42.625 -58.65625 C 42.570312 -57.5 42.472656 -56.171875 42.328125 -54.671875 C 42.179688 -53.171875 41.992188 -51.679688 41.765625 -50.203125 C 41.535156 -48.734375 41.289062 -47.347656 41.03125 -46.046875 C 40.769531 -44.742188 40.519531 -43.660156 40.28125 -42.796875 L 36.734375 -42.796875 L 32.75 -54.671875 C 32.050781 -55.015625 31.023438 -55.332031 29.671875 -55.625 C 28.316406 -55.914062 26.914062 -56.0625 25.46875 -56.0625 C 23.039062 -56.0625 20.988281 -55.425781 19.3125 -54.15625 C 17.644531 -52.882812 16.8125 -51.035156 16.8125 -48.609375 C 16.8125 -46.410156 17.503906 -44.546875 18.890625 -43.015625 C 20.273438 -41.484375 22.003906 -40.082031 24.078125 -38.8125 C 26.160156 -37.539062 28.425781 -36.285156 30.875 -35.046875 C 33.332031 -33.804688 35.601562 -32.375 37.6875 -30.75 C 39.769531 -29.132812 41.503906 -27.242188 42.890625 -25.078125 C 44.273438 -22.910156 44.96875 -20.238281 44.96875 -17.0625 C 44.96875 -11.289062 43.015625 -6.828125 39.109375 -3.671875 C 35.210938 -0.523438 29.484375 1.046875 21.921875 1.046875 C 20.066406 1.046875 18.203125 0.925781 16.328125 0.6875 C 14.453125 0.457031 12.675781 0.144531 11 -0.25 C 9.320312 -0.65625 7.832031 -1.085938 6.53125 -1.546875 C 5.238281 -2.015625 4.273438 -2.507812 3.640625 -3.03125 C 3.691406 -4.363281 3.832031 -5.789062 4.0625 -7.3125 C 4.300781 -8.84375 4.550781 -10.375 4.8125 -11.90625 C 5.070312 -13.4375 5.34375 -14.894531 5.625 -16.28125 C 5.914062 -17.675781 6.207031 -18.890625 6.5 -19.921875 L 10.046875 -19.921875 Z M 13.609375 -7.1875 "/></g></g></g></g></g></svg>